<svg width="512" height="512" viewBox="0 0 512 512" fill="none" xmlns="http://www.w3.org/2000/svg">
  <circle cx="256" cy="256" r="240" fill="#1E3A8A" stroke="#D4AF37" stroke-width="16"/>
  <path d="M180 380V132H270C310 132 340 145 355 170C370 195 370 220 355 245C340 270 310 283 270 283H240V380H180ZM240 235H270C285 235 295 230 302 222C309 214 312 205 312 196C312 187 309 178 302 170C295 162 285 158 270 158H240V235Z" fill="#D4AF37"/>
  <rect x="235" y="270" width="100" height="110" rx="4" fill="#1E3A8A" stroke="#D4AF37" stroke-width="8"/>
  <rect x="260" y="300" width="15" height="15" rx="2" fill="#D4AF37"/>
  <rect x="285" y="300" width="15" height="15" rx="2" fill="#D4AF37"/>
  <rect x="260" y="330" width="15" height="15" rx="2" fill="#D4AF37"/>
  <rect x="285" y="330" width="15" height="15" rx="2" fill="#D4AF37"/>
</svg>
